<svg width="51" height="51" viewBox="0 0 51 51" fill="none" xmlns="http://www.w3.org/2000/svg">
<path d="M2.11719 11.2148H15.4207V22.3013H28.7242V33.3877H42.0277V46.6912H2.11719V11.2148Z" stroke="white" stroke-width="1.77789" stroke-linejoin="round"/>
<path d="M2.11719 11.2148H15.4207V22.3013H28.7242V33.3877H42.0277V46.6912H2.11719V11.2148Z" stroke="white" stroke-width="1.77789" stroke-linejoin="round"/>
<path d="M8.76946 4.51855H22.0719L15.4207 11.2163H2.11719L8.76946 4.51855Z" stroke="white" stroke-width="1.77789" stroke-linejoin="round"/>
<path d="M22.0761 4.51855V15.605L15.4238 22.3028V11.2163L22.0761 4.51855Z" stroke="white" stroke-width="1.77789" stroke-linejoin="round"/>
<path d="M22.075 15.6047H35.3775L28.7263 22.3014H15.4238L22.075 15.6047Z" stroke="white" stroke-width="1.77789" stroke-linejoin="round"/>
<path d="M35.3778 15.6045V26.6909L28.7266 33.3876V22.3012L35.3778 15.6045Z" stroke="white" stroke-width="1.77789" stroke-linejoin="round"/>
<path d="M35.3788 26.6914H48.6823L42.0311 33.3892H28.7266L35.3788 26.6914Z" stroke="white" stroke-width="1.77789" stroke-linejoin="round"/>
<path d="M48.6805 26.6914V39.9949L42.0293 46.6937V33.3881L48.6805 26.6914Z" stroke="white" stroke-width="1.77789" stroke-linejoin="round"/>
</svg>
