<svg width="52" height="52" viewBox="0 0 52 52" fill="none" xmlns="http://www.w3.org/2000/svg">
<path d="M2.1582 13.094C2.1582 11.2375 2.89571 9.45694 4.20849 8.14416C5.52127 6.83138 7.30178 6.09387 9.15834 6.09387H24.8517C26.5059 6.09387 28.1067 6.67959 29.3703 7.74722C30.6339 8.81485 31.4786 10.2954 31.7547 11.9264H36.2233C37.449 11.9264 38.6628 12.1679 39.7952 12.637C40.9276 13.1061 41.9565 13.7936 42.8232 14.6604C43.6899 15.5272 44.3773 16.5562 44.8463 17.6887C45.3153 18.8211 45.5566 20.0349 45.5564 21.2606V23.9433C45.5564 26.4186 44.5731 28.7925 42.8228 30.5428C41.0725 32.2931 38.6986 33.2764 36.2233 33.2764H29.9559C28.6657 35.5773 26.7856 37.4927 24.5092 38.8255C22.2328 40.1583 19.6424 40.8603 17.0045 40.8593C8.80547 40.8593 2.1582 34.212 2.1582 26.013V13.094ZM31.8508 18.9265V26.013C31.8508 26.1004 31.8508 26.1889 31.8486 26.2763H34.8809C35.84 26.2531 36.7519 25.8557 37.422 25.1692C38.0921 24.4827 38.4672 23.5613 38.4672 22.602C38.4672 21.6426 38.0921 20.7213 37.422 20.0347C36.7519 19.3482 35.84 18.9509 34.8809 18.9276H31.8508V18.9265Z" stroke="#0C0C0C" stroke-width="1.81289" stroke-linecap="round"/>
<path d="M17.0003 40.8595C22.5609 40.8595 27.4082 37.8024 29.9517 33.2766L34.035 38.5264C32.7448 40.8273 30.8648 42.7427 28.5884 44.0755C26.312 45.4083 23.7215 46.1103 21.0836 46.1093C18.8758 46.1116 16.6954 45.6205 14.7018 44.6719C12.7082 43.7233 10.9518 42.3411 9.56099 40.6264L5.79492 35.7531C7.18715 37.3582 8.90839 38.6449 10.8418 39.526C12.7752 40.407 14.8756 40.8618 17.0003 40.8595Z" stroke="#0C0C0C" stroke-width="1.81289" stroke-linecap="round" stroke-linejoin="round"/>
<path d="M7.41016 13.853C7.41016 14.2896 7.65759 14.722 8.13834 15.1253C8.61909 15.5287 9.32374 15.8952 10.212 16.204C11.1003 16.5127 12.1549 16.7576 13.3156 16.9247C14.4762 17.0917 15.7201 17.1777 16.9764 17.1777C18.2326 17.1777 19.4766 17.0917 20.6372 16.9247C21.7979 16.7576 22.8524 16.5127 23.7407 16.204C24.629 15.8952 25.3337 15.5287 25.8144 15.1253C26.2952 14.722 26.5426 14.2896 26.5426 13.853C26.5426 13.4164 26.2952 12.9841 25.8144 12.5807C25.3337 12.1773 24.629 11.8108 23.7407 11.5021C22.8524 11.1934 21.7979 10.9485 20.6372 10.7814C19.4766 10.6143 18.2326 10.5283 16.9764 10.5283C15.7201 10.5283 14.4762 10.6143 13.3156 10.7814C12.1549 10.9485 11.1003 11.1934 10.212 11.5021C9.32374 11.8108 8.61909 12.1773 8.13834 12.5807C7.65759 12.9841 7.41016 13.4164 7.41016 13.853Z" stroke="#0C0C0C" stroke-width="1.81289"/>
<path d="M45.5546 21.2608C45.5575 19.2974 44.9383 17.3836 43.7859 15.7941L48.0214 21.2608C49.0775 22.8077 49.6413 24.6376 49.639 26.5106V29.1933C49.639 30.419 49.3975 31.6327 48.9284 32.7652C48.4593 33.8976 47.7718 34.9265 46.905 35.7932C46.0382 36.6599 45.0092 37.3473 43.8767 37.8163C42.7442 38.2853 41.5305 38.5266 40.3047 38.5264H34.0384L29.9551 33.2766H36.2225C38.6976 33.2763 41.0713 32.2929 42.8213 30.5426C44.5714 28.7923 45.5546 26.4186 45.5546 23.9434V21.2608Z" stroke="#0C0C0C" stroke-width="1.81289" stroke-linecap="round" stroke-linejoin="round"/>
</svg>
