<svg width="139" height="24" viewBox="0 0 139 24" fill="none" xmlns="http://www.w3.org/2000/svg">
<g clip-path="url(#clip0_0_20625)">
<path d="M17.5923 14.9381C16.928 17.709 14.375 19.5711 11.2379 19.5711C7.20996 19.5711 4.28679 16.4189 4.28679 12.0756C4.28679 9.9543 4.98064 8.03888 6.24167 6.68161C7.50129 5.32739 9.27461 4.58014 11.2365 4.58014C14.3244 4.58014 16.6311 6.21801 17.408 8.96151L17.5234 9.36717H21.1207L20.9518 8.65193C19.8428 3.93353 16.1019 1.00244 11.1901 1.00244C8.28802 1.00244 5.63508 2.11723 3.72242 4.14093C1.80555 6.17073 0.75 8.98896 0.75 12.0756C0.75 15.1622 1.80555 17.9805 3.72383 20.0103C5.63649 22.034 8.28802 23.1488 11.1915 23.1488C13.6995 23.1488 15.9851 22.3558 17.7992 20.8536C19.5219 19.4277 20.7111 17.4208 21.1488 15.2019L21.2853 14.508H17.6965L17.5937 14.9381H17.5923Z" fill="#0C0C0C"/>
<path d="M29.6449 6.86609C27.5676 6.86609 25.6718 7.68655 24.308 9.17802C22.9499 10.6619 22.2012 12.7145 22.2012 14.9578C22.2012 17.2011 22.9485 19.2538 24.308 20.7377C25.6732 22.2291 27.569 23.0496 29.6449 23.0496C31.7208 23.0496 33.5997 22.2276 34.9621 20.7361C36.3188 19.2508 37.0647 17.1981 37.0647 14.9578C37.0647 12.7176 36.3174 10.6649 34.9621 9.17954C33.5997 7.68807 31.7124 6.86609 29.6449 6.86609ZM33.6222 14.9578C33.6222 17.6602 31.9488 19.6213 29.6449 19.6213C27.341 19.6213 25.6437 17.7029 25.6437 14.9578C25.6437 12.2128 27.2889 10.2943 29.6449 10.2943C32.0009 10.2943 33.6222 12.2555 33.6222 14.9578Z" fill="#0C0C0C"/>
<path d="M45.7841 6.86603C44.0192 6.86603 42.6512 7.56601 41.7364 8.42155V7.21678H38.2461V19.4901C38.2461 21.2592 39.5747 22.6972 41.2059 22.6972H41.735V14.7061C41.735 12.2585 43.3184 10.2683 45.2648 10.2683C47.2112 10.2683 48.2513 11.6576 48.2513 14.18V22.6972H51.7416V13.7286C51.7416 9.62326 49.3476 6.8645 45.7841 6.8645V6.86603Z" fill="#0C0C0C"/>
<path d="M60.79 7.04138C59.0251 7.04138 57.6571 7.74137 56.7423 8.5969V7.39214H53.252V19.667C53.252 21.436 54.5805 22.8741 56.2117 22.8741H56.7409V14.883C56.7409 12.4354 58.3242 10.4452 60.2706 10.4452C62.2171 10.4452 63.2571 11.8345 63.2571 14.3569V22.8741H66.7475V13.9055C66.7475 9.80014 64.3535 7.04138 60.79 7.04138Z" fill="#0C0C0C"/>
<path d="M94.6955 17.0776C94.2029 18.6468 92.894 19.6198 91.2797 19.6198C88.9378 19.6198 87.3024 17.7013 87.3024 14.9563C87.3024 12.2112 88.9378 10.2927 91.2797 10.2927C92.8926 10.2927 94.1508 11.2261 94.649 12.7877L94.7729 13.175H98.2998L98.1436 12.4674C97.4019 9.11695 94.6434 6.8645 91.2811 6.8645C89.2137 6.8645 87.3263 7.68649 85.964 9.17795C84.6072 10.6633 83.8613 12.716 83.8613 14.9563C83.8613 17.1965 84.6143 19.2507 85.9795 20.7361C87.3503 22.226 89.2503 23.048 91.3276 23.048C94.6884 23.048 97.3808 20.8321 98.1886 17.4039L98.3575 16.6887H94.8193L94.6969 17.0776H94.6955Z" fill="#0C0C0C"/>
<path d="M104.575 2.85675H101.086V7.21678H98.0898V10.645H101.086V19.4917C101.086 21.2607 102.413 22.6988 104.046 22.6988H104.575V10.645H107.571V7.21678H104.575V2.85675Z" fill="#0C0C0C"/>
<path d="M134.76 0.851379V8.4048C133.813 7.54621 132.386 6.86605 130.5 6.86605C126.391 6.86605 123.293 10.3446 123.293 14.9578C123.293 19.571 126.392 23.0495 130.5 23.0495C132.388 23.0495 133.813 22.3709 134.76 21.5108V22.6988H138.249V0.851379H134.76ZM134.68 14.9578C134.68 17.7471 133.086 19.6213 130.713 19.6213C128.34 19.6213 126.607 17.6601 126.607 14.9578C126.607 12.2555 128.334 10.2943 130.713 10.2943C133.091 10.2943 134.68 12.1685 134.68 14.9578Z" fill="#0C0C0C"/>
<path d="M75.4488 6.70142C71.0549 6.70142 67.9629 10.1327 67.9629 14.8664C67.9629 19.6 71.0564 23.0298 75.4488 23.0313C79.512 23.0313 81.7568 20.4723 82.4929 17.494H79.239C79.239 17.494 78.7576 18.3236 78.6971 18.3953C78.4002 18.7414 78.0497 19.0327 77.6739 19.2691C76.434 20.0469 74.8563 20.1002 73.5489 19.475C72.5046 18.9748 71.8515 17.86 71.6869 16.6506L82.7195 14.5995C82.7195 10.5917 79.8441 6.70294 75.4503 6.70294L75.4488 6.70142ZM71.6784 13.7989C71.3983 11.888 72.8902 10.119 74.8254 9.78653C76.7619 9.45255 78.7126 10.6832 78.9927 12.5941L71.677 13.7989H71.6784Z" fill="#0C0C0C"/>
<path d="M115.099 6.61597C110.705 6.61597 107.613 10.0473 107.613 14.7809C107.613 19.5146 110.707 22.9443 115.099 22.9459C119.162 22.9459 121.407 20.3869 122.143 17.4085H118.889C118.889 17.4085 118.408 18.2381 118.348 18.3098C118.051 18.656 117.7 18.9473 117.324 19.1836C116.084 19.9614 114.507 20.0148 113.199 19.3895C112.155 18.8893 111.502 17.7745 111.337 16.5652L122.37 14.514C122.37 10.5063 119.495 6.61749 115.101 6.61749L115.099 6.61597ZM111.329 13.7134C111.049 11.8026 112.541 10.0335 114.476 9.70108C116.412 9.3671 118.363 10.5978 118.643 12.5086L111.327 13.7134H111.329Z" fill="#0C0C0C"/>
<path d="M58.4235 14.8663H46.5592C45.6948 14.8663 44.9941 15.6256 44.9941 16.5622V16.7162C44.9941 17.6528 45.6948 18.412 46.5592 18.412H58.4235C59.2879 18.412 59.9886 17.6528 59.9886 16.7162V16.5622C59.9886 15.6256 59.2879 14.8663 58.4235 14.8663Z" fill="#1289F8"/>
</g>
<defs>
<clipPath id="clip0_0_20625">
<rect width="137.5" height="22.2973" fill="white" transform="translate(0.75 0.851379)"/>
</clipPath>
</defs>
</svg>
