<svg width="52" height="52" viewBox="0 0 52 52" fill="none" xmlns="http://www.w3.org/2000/svg">
<path d="M40.8915 14.6711C41.3798 14.0322 41.5969 13.2268 41.4958 12.4291C41.3948 11.6313 40.9837 10.9054 40.3516 10.4085C39.7194 9.9115 38.917 9.68339 38.118 9.77349C37.319 9.86359 36.5875 10.2647 36.0819 10.8899L38.0232 8.4188C38.2768 8.10346 38.4654 7.74095 38.5779 7.35225C38.6904 6.96355 38.7247 6.55638 38.6788 6.15433C38.6329 5.75228 38.5077 5.36334 38.3104 5.01003C38.1131 4.65671 37.8477 4.34605 37.5295 4.09602C37.2113 3.846 36.8467 3.66159 36.4567 3.55347C36.0668 3.44534 35.6593 3.41566 35.2578 3.46613C34.8563 3.51661 34.4688 3.64623 34.1177 3.84751C33.7666 4.04878 33.459 4.31771 33.2126 4.6387L31.2724 7.10877C31.5272 6.79363 31.7169 6.431 31.8304 6.04194C31.9438 5.65288 31.9789 5.24515 31.9335 4.84242C31.8881 4.4397 31.7631 4.05002 31.5658 3.696C31.3685 3.34199 31.1029 3.0307 30.7843 2.78023C30.4657 2.52975 30.1005 2.34507 29.7099 2.23692C29.3193 2.12877 28.9111 2.0993 28.5091 2.15023C28.107 2.20115 27.7191 2.33146 27.3678 2.53358C27.0165 2.73569 26.7089 3.00559 26.4628 3.3276L16.6042 15.7178L16.5588 8.64972C16.5535 7.80496 16.2237 6.99455 15.6376 6.38615C15.0515 5.77776 14.254 5.41793 13.41 5.38113C12.6261 5.34354 11.8552 5.59103 11.2396 6.07782C10.6241 6.56462 10.2056 7.25781 10.0616 8.02924C9.23712 12.4935 7.04871 20.808 6.8167 26.2715C6.65699 30.0138 7.12532 35.5485 11.6101 39.3458C20.0789 46.5197 28.061 41.5256 33.7036 34.0496L43.3367 21.5148C43.8374 20.8707 44.0618 20.0541 43.9604 19.2446C43.859 18.4351 43.4402 17.6991 42.7961 17.1984C42.152 16.6977 41.3354 16.4733 40.5259 16.5747C39.7164 16.6761 38.9804 17.0949 38.4797 17.739L40.8915 14.6711Z" stroke="#0C0C0C" stroke-width="1.81289" stroke-linecap="round" stroke-linejoin="round"/>
<path d="M43.9655 19.3633C44.036 20.1328 43.8133 20.9006 43.3418 21.5129L33.7076 34.0488C28.0649 41.5237 20.0828 46.5178 11.614 39.345C9.06628 37.1868 7.8156 34.4675 7.23828 31.8345L8.35731 39.0288C8.96916 41.5421 10.2198 44.106 12.6457 46.1606C21.1144 53.3345 29.0966 48.3404 34.7392 40.8644L44.3734 28.3285C44.6249 28.0018 44.808 27.6278 44.9118 27.2288C45.0157 26.8299 45.0381 26.4141 44.9777 26.0062L43.9655 19.3633Z" stroke="#0C0C0C" stroke-width="1.81289" stroke-linecap="round" stroke-linejoin="round"/>
<path d="M31.2726 7.1084L22.6895 18.0289" stroke="#0C0C0C" stroke-width="1.81289" stroke-linecap="round" stroke-linejoin="round"/>
<path d="M28.6738 20.3143L36.0829 10.8894" stroke="#0C0C0C" stroke-width="1.81289" stroke-linecap="round" stroke-linejoin="round"/>
<path d="M40.8928 14.6689L32.3086 25.5895" stroke="#0C0C0C" stroke-width="1.81289" stroke-linecap="round" stroke-linejoin="round"/>
</svg>
